<mxfile host="app.diagrams.net" modified="2024-06-17T07:22:53.436Z" agent="Mozilla/5.0 (Windows NT 10.0; Win64; x64) AppleWebKit/537.36 (KHTML, like Gecko) Chrome/124.0.0.0 Safari/537.36" etag="aiO9ZT8D44hPDqGPWcrA" version="24.4.3" type="device">
  <diagram name="Seite-1" id="yhrI4QmUxxDrj-wplsso">
    <mxGraphModel dx="1427" dy="724" grid="1" gridSize="10" guides="1" tooltips="1" connect="1" arrows="1" fold="1" page="1" pageScale="1" pageWidth="827" pageHeight="1169" math="0" shadow="0">
      <root>
        <mxCell id="0" />
        <mxCell id="1" parent="0" />
        <mxCell id="daFEFV1Zi2tX89hXToWz-2" value="" style="rounded=0;whiteSpace=wrap;html=1;fillColor=#383838;" vertex="1" parent="1">
          <mxGeometry x="140" y="170" width="810" height="510" as="geometry" />
        </mxCell>
        <mxCell id="daFEFV1Zi2tX89hXToWz-4" value="&lt;font style=&quot;font-size: 36px;&quot;&gt;Blog&lt;/font&gt;" style="text;html=1;align=center;verticalAlign=middle;whiteSpace=wrap;rounded=0;fillColor=#323232;strokeColor=#323232;" vertex="1" parent="1">
          <mxGeometry x="520" y="182.5" width="70" height="35" as="geometry" />
        </mxCell>
        <mxCell id="daFEFV1Zi2tX89hXToWz-6" value="&lt;font style=&quot;font-size: 36px;&quot;&gt;Blog Titel&lt;/font&gt;" style="text;html=1;align=center;verticalAlign=middle;whiteSpace=wrap;rounded=0;fillColor=#343434;strokeColor=#323232;" vertex="1" parent="1">
          <mxGeometry x="200" y="250" width="160" height="35" as="geometry" />
        </mxCell>
        <mxCell id="daFEFV1Zi2tX89hXToWz-7" value="&lt;font style=&quot;font-size: 10px;&quot;&gt;Text&lt;/font&gt;&lt;span style=&quot;font-size: 10px;&quot;&gt;Text&lt;/span&gt;&lt;span style=&quot;font-size: 10px;&quot;&gt;Text&lt;/span&gt;&lt;span style=&quot;font-size: 10px;&quot;&gt;Text&lt;/span&gt;&lt;span style=&quot;font-size: 10px;&quot;&gt;Text&lt;/span&gt;&lt;span style=&quot;font-size: 10px;&quot;&gt;Text&lt;/span&gt;&lt;span style=&quot;font-size: 10px;&quot;&gt;Text&lt;/span&gt;&lt;span style=&quot;font-size: 10px;&quot;&gt;Text&lt;/span&gt;&lt;span style=&quot;font-size: 10px;&quot;&gt;Text&lt;/span&gt;&lt;span style=&quot;font-size: 10px;&quot;&gt;Text&lt;/span&gt;&lt;span style=&quot;font-size: 10px;&quot;&gt;Text&lt;/span&gt;&lt;span style=&quot;font-size: 10px;&quot;&gt;Text&lt;/span&gt;&lt;span style=&quot;font-size: 10px;&quot;&gt;Text&lt;/span&gt;&lt;span style=&quot;font-size: 10px;&quot;&gt;Text&lt;/span&gt;&lt;span style=&quot;font-size: 10px;&quot;&gt;Text&lt;/span&gt;&lt;span style=&quot;font-size: 10px;&quot;&gt;Text&lt;/span&gt;&lt;span style=&quot;font-size: 10px;&quot;&gt;Text&lt;/span&gt;&lt;span style=&quot;font-size: 10px;&quot;&gt;Text&lt;/span&gt;&lt;span style=&quot;font-size: 10px;&quot;&gt;Text&lt;/span&gt;&lt;span style=&quot;font-size: 10px;&quot;&gt;Text&lt;/span&gt;&lt;span style=&quot;font-size: 10px;&quot;&gt;Text&lt;/span&gt;&lt;span style=&quot;font-size: 10px;&quot;&gt;Text&lt;/span&gt;&lt;span style=&quot;font-size: 10px;&quot;&gt;Text&lt;/span&gt;&lt;span style=&quot;font-size: 10px;&quot;&gt;Text&lt;/span&gt;&lt;span style=&quot;font-size: 10px;&quot;&gt;Text&lt;/span&gt;&lt;span style=&quot;font-size: 10px;&quot;&gt;Text&lt;/span&gt;&lt;span style=&quot;font-size: 10px;&quot;&gt;Text&lt;/span&gt;&lt;span style=&quot;font-size: 10px;&quot;&gt;Text&lt;/span&gt;&lt;span style=&quot;font-size: 10px;&quot;&gt;Text&lt;/span&gt;&lt;span style=&quot;font-size: 10px;&quot;&gt;Text&lt;/span&gt;&lt;span style=&quot;font-size: 10px;&quot;&gt;Text&lt;/span&gt;&lt;span style=&quot;font-size: 10px;&quot;&gt;Text&lt;/span&gt;&lt;span style=&quot;font-size: 10px;&quot;&gt;Text&lt;/span&gt;" style="text;html=1;align=center;verticalAlign=middle;whiteSpace=wrap;rounded=0;fillColor=#343434;strokeColor=#323232;" vertex="1" parent="1">
          <mxGeometry x="200" y="285" width="620" height="20" as="geometry" />
        </mxCell>
        <mxCell id="daFEFV1Zi2tX89hXToWz-8" value="&lt;font style=&quot;font-size: 10px;&quot;&gt;Text&lt;/font&gt;&lt;span style=&quot;font-size: 10px;&quot;&gt;Text&lt;/span&gt;&lt;span style=&quot;font-size: 10px;&quot;&gt;Text&lt;/span&gt;&lt;span style=&quot;font-size: 10px;&quot;&gt;Text&lt;/span&gt;&lt;span style=&quot;font-size: 10px;&quot;&gt;Text&lt;/span&gt;&lt;span style=&quot;font-size: 10px;&quot;&gt;Text&lt;/span&gt;&lt;span style=&quot;font-size: 10px;&quot;&gt;Text&lt;/span&gt;&lt;span style=&quot;font-size: 10px;&quot;&gt;Text&lt;/span&gt;&lt;span style=&quot;font-size: 10px;&quot;&gt;Text&lt;/span&gt;&lt;span style=&quot;font-size: 10px;&quot;&gt;Text&lt;/span&gt;&lt;span style=&quot;font-size: 10px;&quot;&gt;Text&lt;/span&gt;&lt;span style=&quot;font-size: 10px;&quot;&gt;Text&lt;/span&gt;&lt;span style=&quot;font-size: 10px;&quot;&gt;Text&lt;/span&gt;&lt;span style=&quot;font-size: 10px;&quot;&gt;Text&lt;/span&gt;&lt;span style=&quot;font-size: 10px;&quot;&gt;Text&lt;/span&gt;&lt;span style=&quot;font-size: 10px;&quot;&gt;Text&lt;/span&gt;&lt;span style=&quot;font-size: 10px;&quot;&gt;Text&lt;/span&gt;&lt;span style=&quot;font-size: 10px;&quot;&gt;Text&lt;/span&gt;&lt;span style=&quot;font-size: 10px;&quot;&gt;Text&lt;/span&gt;&lt;span style=&quot;font-size: 10px;&quot;&gt;Text&lt;/span&gt;&lt;span style=&quot;font-size: 10px;&quot;&gt;Text&lt;/span&gt;&lt;span style=&quot;font-size: 10px;&quot;&gt;Text&lt;/span&gt;&lt;span style=&quot;font-size: 10px;&quot;&gt;Text&lt;/span&gt;&lt;span style=&quot;font-size: 10px;&quot;&gt;Text&lt;/span&gt;&lt;span style=&quot;font-size: 10px;&quot;&gt;Text&lt;/span&gt;&lt;span style=&quot;font-size: 10px;&quot;&gt;Text&lt;/span&gt;&lt;span style=&quot;font-size: 10px;&quot;&gt;Text&lt;/span&gt;&lt;span style=&quot;font-size: 10px;&quot;&gt;Text&lt;/span&gt;&lt;span style=&quot;font-size: 10px;&quot;&gt;Text&lt;/span&gt;&lt;span style=&quot;font-size: 10px;&quot;&gt;Text&lt;/span&gt;&lt;span style=&quot;font-size: 10px;&quot;&gt;Text&lt;/span&gt;&lt;span style=&quot;font-size: 10px;&quot;&gt;Text&lt;/span&gt;&lt;span style=&quot;font-size: 10px;&quot;&gt;Text&lt;/span&gt;" style="text;html=1;align=center;verticalAlign=middle;whiteSpace=wrap;rounded=0;fillColor=#343434;strokeColor=#323232;" vertex="1" parent="1">
          <mxGeometry x="200" y="305" width="620" height="20" as="geometry" />
        </mxCell>
        <mxCell id="daFEFV1Zi2tX89hXToWz-9" value="&lt;font style=&quot;font-size: 10px;&quot;&gt;Text&lt;/font&gt;&lt;span style=&quot;font-size: 10px;&quot;&gt;Text&lt;/span&gt;&lt;span style=&quot;font-size: 10px;&quot;&gt;Text&lt;/span&gt;&lt;span style=&quot;font-size: 10px;&quot;&gt;Text&lt;/span&gt;&lt;span style=&quot;font-size: 10px;&quot;&gt;Text&lt;/span&gt;&lt;span style=&quot;font-size: 10px;&quot;&gt;Text&lt;/span&gt;&lt;span style=&quot;font-size: 10px;&quot;&gt;Text&lt;/span&gt;&lt;span style=&quot;font-size: 10px;&quot;&gt;Text&lt;/span&gt;&lt;span style=&quot;font-size: 10px;&quot;&gt;Text&lt;/span&gt;&lt;span style=&quot;font-size: 10px;&quot;&gt;Text&lt;/span&gt;&lt;span style=&quot;font-size: 10px;&quot;&gt;Text&lt;/span&gt;&lt;span style=&quot;font-size: 10px;&quot;&gt;Text&lt;/span&gt;&lt;span style=&quot;font-size: 10px;&quot;&gt;Text&lt;/span&gt;&lt;span style=&quot;font-size: 10px;&quot;&gt;Text&lt;/span&gt;&lt;span style=&quot;font-size: 10px;&quot;&gt;Text&lt;/span&gt;&lt;span style=&quot;font-size: 10px;&quot;&gt;Text&lt;/span&gt;&lt;span style=&quot;font-size: 10px;&quot;&gt;Text&lt;/span&gt;&lt;span style=&quot;font-size: 10px;&quot;&gt;Text&lt;/span&gt;&lt;span style=&quot;font-size: 10px;&quot;&gt;Text&lt;/span&gt;&lt;span style=&quot;font-size: 10px;&quot;&gt;Text&lt;/span&gt;&lt;span style=&quot;font-size: 10px;&quot;&gt;Text&lt;/span&gt;&lt;span style=&quot;font-size: 10px;&quot;&gt;Text&lt;/span&gt;&lt;span style=&quot;font-size: 10px;&quot;&gt;Text&lt;/span&gt;&lt;span style=&quot;font-size: 10px;&quot;&gt;Text&lt;/span&gt;&lt;span style=&quot;font-size: 10px;&quot;&gt;Text&lt;/span&gt;&lt;span style=&quot;font-size: 10px;&quot;&gt;Text&lt;/span&gt;&lt;span style=&quot;font-size: 10px;&quot;&gt;Text&lt;/span&gt;&lt;span style=&quot;font-size: 10px;&quot;&gt;Text&lt;/span&gt;&lt;span style=&quot;font-size: 10px;&quot;&gt;Text&lt;/span&gt;&lt;span style=&quot;font-size: 10px;&quot;&gt;Text&lt;/span&gt;&lt;span style=&quot;font-size: 10px;&quot;&gt;Text&lt;/span&gt;&lt;span style=&quot;font-size: 10px;&quot;&gt;Text&lt;/span&gt;&lt;span style=&quot;font-size: 10px;&quot;&gt;Text&lt;/span&gt;" style="text;html=1;align=center;verticalAlign=middle;whiteSpace=wrap;rounded=0;fillColor=#343434;strokeColor=#323232;" vertex="1" parent="1">
          <mxGeometry x="200" y="325" width="620" height="20" as="geometry" />
        </mxCell>
        <mxCell id="daFEFV1Zi2tX89hXToWz-10" value="" style="endArrow=none;html=1;rounded=0;entryX=-0.003;entryY=0.373;entryDx=0;entryDy=0;entryPerimeter=0;exitX=1;exitY=0.376;exitDx=0;exitDy=0;exitPerimeter=0;fillColor=#FFFFFF;strokeColor=#575757;" edge="1" parent="1" source="daFEFV1Zi2tX89hXToWz-2" target="daFEFV1Zi2tX89hXToWz-2">
          <mxGeometry width="50" height="50" relative="1" as="geometry">
            <mxPoint x="960" y="400" as="sourcePoint" />
            <mxPoint x="564" y="550" as="targetPoint" />
          </mxGeometry>
        </mxCell>
        <mxCell id="daFEFV1Zi2tX89hXToWz-11" value="&lt;font style=&quot;font-size: 36px;&quot;&gt;Komentare&lt;/font&gt;" style="text;html=1;align=center;verticalAlign=middle;whiteSpace=wrap;rounded=0;fillColor=#343434;strokeColor=#323232;" vertex="1" parent="1">
          <mxGeometry x="190" y="370" width="160" height="35" as="geometry" />
        </mxCell>
        <mxCell id="daFEFV1Zi2tX89hXToWz-12" value="&lt;font style=&quot;font-size: 24px;&quot;&gt;Hans&lt;/font&gt;" style="text;html=1;align=center;verticalAlign=middle;whiteSpace=wrap;rounded=0;fillColor=#343434;strokeColor=#323232;" vertex="1" parent="1">
          <mxGeometry x="180" y="412.5" width="60" height="25" as="geometry" />
        </mxCell>
        <mxCell id="daFEFV1Zi2tX89hXToWz-13" value="&lt;font style=&quot;font-size: 10px;&quot;&gt;Text&lt;/font&gt;&lt;span style=&quot;font-size: 10px;&quot;&gt;Text&lt;/span&gt;&lt;span style=&quot;font-size: 10px;&quot;&gt;Text&lt;/span&gt;&lt;span style=&quot;font-size: 10px;&quot;&gt;Text&lt;/span&gt;&lt;span style=&quot;font-size: 10px;&quot;&gt;Text&lt;/span&gt;&lt;span style=&quot;font-size: 10px;&quot;&gt;Text&lt;/span&gt;&lt;span style=&quot;font-size: 10px;&quot;&gt;Text&lt;/span&gt;&lt;span style=&quot;font-size: 10px;&quot;&gt;Text&lt;/span&gt;" style="text;html=1;align=center;verticalAlign=middle;whiteSpace=wrap;rounded=0;fillColor=#343434;strokeColor=#323232;" vertex="1" parent="1">
          <mxGeometry x="180" y="437.5" width="160" height="20" as="geometry" />
        </mxCell>
        <mxCell id="daFEFV1Zi2tX89hXToWz-14" value="&lt;span style=&quot;font-size: 24px;&quot;&gt;Peter&lt;/span&gt;" style="text;html=1;align=center;verticalAlign=middle;whiteSpace=wrap;rounded=0;fillColor=#343434;strokeColor=#323232;" vertex="1" parent="1">
          <mxGeometry x="180" y="470" width="60" height="25" as="geometry" />
        </mxCell>
        <mxCell id="daFEFV1Zi2tX89hXToWz-15" value="&lt;font style=&quot;font-size: 10px;&quot;&gt;Text&lt;/font&gt;&lt;span style=&quot;font-size: 10px;&quot;&gt;Text&lt;/span&gt;&lt;span style=&quot;font-size: 10px;&quot;&gt;Text&lt;/span&gt;&lt;span style=&quot;font-size: 10px;&quot;&gt;Text&lt;/span&gt;&lt;span style=&quot;font-size: 10px;&quot;&gt;Text&lt;/span&gt;&lt;span style=&quot;font-size: 10px;&quot;&gt;Text&lt;/span&gt;&lt;span style=&quot;font-size: 10px;&quot;&gt;Text&lt;/span&gt;&lt;span style=&quot;font-size: 10px;&quot;&gt;Text&lt;/span&gt;" style="text;html=1;align=center;verticalAlign=middle;whiteSpace=wrap;rounded=0;fillColor=#343434;strokeColor=#323232;" vertex="1" parent="1">
          <mxGeometry x="180" y="495" width="160" height="20" as="geometry" />
        </mxCell>
        <mxCell id="daFEFV1Zi2tX89hXToWz-16" value="" style="rounded=0;whiteSpace=wrap;html=1;strokeColor=#121212;fillColor=#A8A8A8;" vertex="1" parent="1">
          <mxGeometry x="140" y="620" width="810" height="60" as="geometry" />
        </mxCell>
        <mxCell id="daFEFV1Zi2tX89hXToWz-17" value="&lt;div style=&quot;color: rgb(212, 212, 212); background-color: rgb(30, 30, 30); font-family: Consolas, &amp;quot;Courier New&amp;quot;, monospace; font-size: 14px; line-height: 19px; white-space: pre;&quot;&gt;©2024 Blog Website&lt;br&gt;&lt;/div&gt;" style="text;html=1;align=center;verticalAlign=middle;whiteSpace=wrap;rounded=0;fillColor=#202020;" vertex="1" parent="1">
          <mxGeometry x="475" y="635" width="140" height="30" as="geometry" />
        </mxCell>
      </root>
    </mxGraphModel>
  </diagram>
</mxfile>
